<?xml version="1.0" encoding="UTF-8" standalone="no"?>
<!DOCTYPE svg PUBLIC "-//W3C//DTD SVG 1.1//EN"
 "http://www.w3.org/Graphics/SVG/1.1/DTD/svg11.dtd">
<!-- Generated by graphviz version 2.38.0 (20140413.2041)
 -->
<!-- Title: G Pages: 1 -->
<svg width="1044pt" height="764pt"
 viewBox="0.00 0.00 1044.00 764.00" xmlns="http://www.w3.org/2000/svg" xmlns:xlink="http://www.w3.org/1999/xlink">
<g id="graph0" class="graph" transform="scale(1 1) rotate(0) translate(4 760)">
<title>G</title>
<polygon fill="white" stroke="none" points="-4,4 -4,-760 1040,-760 1040,4 -4,4"/>
<!-- Chemical_name_to_chemspider_IDWORKFLOWINTERNALSINK_CSIDs -->
<g id="node1" class="node"><title>Chemical_name_to_chemspider_IDWORKFLOWINTERNALSINK_CSIDs</title>
<polygon fill="none" stroke="black" points="722.5,-396 273.5,-396 273.5,-360 722.5,-360 722.5,-396"/>
<text text-anchor="middle" x="498" y="-374.3" font-family="Times New Roman,serif" font-size="14.00">Chemical_name_to_chemspider_IDWORKFLOWINTERNALSINK_CSIDs</text>
</g>
<!-- Workflow40WORKFLOWINTERNALSOURCE_id_in -->
<g id="node9" class="node"><title>Workflow40WORKFLOWINTERNALSOURCE_id_in</title>
<polygon fill="none" stroke="black" points="664,-324 332,-324 332,-288 664,-288 664,-324"/>
<text text-anchor="middle" x="498" y="-302.3" font-family="Times New Roman,serif" font-size="14.00">Workflow40WORKFLOWINTERNALSOURCE_id_in</text>
</g>
<!-- Chemical_name_to_chemspider_IDWORKFLOWINTERNALSINK_CSIDs&#45;&gt;Workflow40WORKFLOWINTERNALSOURCE_id_in -->
<g id="edge1" class="edge"><title>Chemical_name_to_chemspider_IDWORKFLOWINTERNALSINK_CSIDs&#45;&gt;Workflow40WORKFLOWINTERNALSOURCE_id_in</title>
<path fill="none" stroke="black" d="M498,-359.697C498,-351.983 498,-342.712 498,-334.112"/>
<polygon fill="black" stroke="black" points="501.5,-334.104 498,-324.104 494.5,-334.104 501.5,-334.104"/>
</g>
<!-- Workflow40XPath_Service -->
<g id="node2" class="node"><title>Workflow40XPath_Service</title>
<polygon fill="none" stroke="black" points="583,-180 413,-180 413,-144 583,-144 583,-180"/>
<text text-anchor="middle" x="498" y="-158.3" font-family="Times New Roman,serif" font-size="14.00">Workflow40XPath_Service</text>
</g>
<!-- Workflow40WORKFLOWINTERNALSINK_mapped_uris -->
<g id="node5" class="node"><title>Workflow40WORKFLOWINTERNALSINK_mapped_uris</title>
<polygon fill="none" stroke="black" points="674.5,-108 321.5,-108 321.5,-72 674.5,-72 674.5,-108"/>
<text text-anchor="middle" x="498" y="-86.3" font-family="Times New Roman,serif" font-size="14.00">Workflow40WORKFLOWINTERNALSINK_mapped_uris</text>
</g>
<!-- Workflow40XPath_Service&#45;&gt;Workflow40WORKFLOWINTERNALSINK_mapped_uris -->
<g id="edge2" class="edge"><title>Workflow40XPath_Service&#45;&gt;Workflow40WORKFLOWINTERNALSINK_mapped_uris</title>
<path fill="none" stroke="black" d="M498,-143.697C498,-135.983 498,-126.712 498,-118.112"/>
<polygon fill="black" stroke="black" points="501.5,-118.104 498,-108.104 494.5,-118.104 501.5,-118.104"/>
</g>
<!-- Chemical_name_to_chemspider_IDWORKFLOWINTERNALSOURCE_Token -->
<g id="node3" class="node"><title>Chemical_name_to_chemspider_IDWORKFLOWINTERNALSOURCE_Token</title>
<polygon fill="none" stroke="black" points="470,-684 0,-684 0,-648 470,-648 470,-684"/>
<text text-anchor="middle" x="235" y="-662.3" font-family="Times New Roman,serif" font-size="14.00">Chemical_name_to_chemspider_IDWORKFLOWINTERNALSOURCE_Token</text>
</g>
<!-- Chemical_name_to_chemspider_IDSimpleSearch_input -->
<g id="node12" class="node"><title>Chemical_name_to_chemspider_IDSimpleSearch_input</title>
<polygon fill="none" stroke="black" points="662.5,-612 333.5,-612 333.5,-576 662.5,-576 662.5,-612"/>
<text text-anchor="middle" x="498" y="-590.3" font-family="Times New Roman,serif" font-size="14.00">Chemical_name_to_chemspider_IDSimpleSearch_input</text>
</g>
<!-- Chemical_name_to_chemspider_IDWORKFLOWINTERNALSOURCE_Token&#45;&gt;Chemical_name_to_chemspider_IDSimpleSearch_input -->
<g id="edge4" class="edge"><title>Chemical_name_to_chemspider_IDWORKFLOWINTERNALSOURCE_Token&#45;&gt;Chemical_name_to_chemspider_IDSimpleSearch_input</title>
<path fill="none" stroke="black" d="M299.001,-647.966C336.706,-637.93 384.57,-625.19 423.907,-614.721"/>
<polygon fill="black" stroke="black" points="424.949,-618.065 433.712,-612.111 423.148,-611.301 424.949,-618.065"/>
</g>
<!-- WORKFLOWINTERNALSOURCE_Chem_name -->
<g id="node4" class="node"><title>WORKFLOWINTERNALSOURCE_Chem_name</title>
<polygon fill="none" stroke="black" points="913.5,-756 610.5,-756 610.5,-720 913.5,-720 913.5,-756"/>
<text text-anchor="middle" x="762" y="-734.3" font-family="Times New Roman,serif" font-size="14.00">WORKFLOWINTERNALSOURCE_Chem_name</text>
</g>
<!-- Chemical_name_to_chemspider_IDWORKFLOWINTERNALSOURCE_ChemicalNameOrID -->
<g id="node8" class="node"><title>Chemical_name_to_chemspider_IDWORKFLOWINTERNALSOURCE_ChemicalNameOrID</title>
<polygon fill="none" stroke="black" points="1036,-684 488,-684 488,-648 1036,-648 1036,-684"/>
<text text-anchor="middle" x="762" y="-662.3" font-family="Times New Roman,serif" font-size="14.00">Chemical_name_to_chemspider_IDWORKFLOWINTERNALSOURCE_ChemicalNameOrID</text>
</g>
<!-- WORKFLOWINTERNALSOURCE_Chem_name&#45;&gt;Chemical_name_to_chemspider_IDWORKFLOWINTERNALSOURCE_ChemicalNameOrID -->
<g id="edge6" class="edge"><title>WORKFLOWINTERNALSOURCE_Chem_name&#45;&gt;Chemical_name_to_chemspider_IDWORKFLOWINTERNALSOURCE_ChemicalNameOrID</title>
<path fill="none" stroke="black" d="M762,-719.697C762,-711.983 762,-702.712 762,-694.112"/>
<polygon fill="black" stroke="black" points="765.5,-694.104 762,-684.104 758.5,-694.104 765.5,-694.104"/>
</g>
<!-- WORKFLOWINTERNALSINK_uri_out -->
<g id="node10" class="node"><title>WORKFLOWINTERNALSINK_uri_out</title>
<polygon fill="none" stroke="black" points="622.5,-36 373.5,-36 373.5,-0 622.5,-0 622.5,-36"/>
<text text-anchor="middle" x="498" y="-14.3" font-family="Times New Roman,serif" font-size="14.00">WORKFLOWINTERNALSINK_uri_out</text>
</g>
<!-- Workflow40WORKFLOWINTERNALSINK_mapped_uris&#45;&gt;WORKFLOWINTERNALSINK_uri_out -->
<g id="edge8" class="edge"><title>Workflow40WORKFLOWINTERNALSINK_mapped_uris&#45;&gt;WORKFLOWINTERNALSINK_uri_out</title>
<path fill="none" stroke="black" d="M498,-71.6966C498,-63.9827 498,-54.7125 498,-46.1124"/>
<polygon fill="black" stroke="black" points="501.5,-46.1043 498,-36.1043 494.5,-46.1044 501.5,-46.1043"/>
</g>
<!-- Workflow40REST_Service -->
<g id="node6" class="node"><title>Workflow40REST_Service</title>
<polygon fill="none" stroke="black" points="583.5,-252 412.5,-252 412.5,-216 583.5,-216 583.5,-252"/>
<text text-anchor="middle" x="498" y="-230.3" font-family="Times New Roman,serif" font-size="14.00">Workflow40REST_Service</text>
</g>
<!-- Workflow40REST_Service&#45;&gt;Workflow40XPath_Service -->
<g id="edge9" class="edge"><title>Workflow40REST_Service&#45;&gt;Workflow40XPath_Service</title>
<path fill="none" stroke="black" d="M498,-215.697C498,-207.983 498,-198.712 498,-190.112"/>
<polygon fill="black" stroke="black" points="501.5,-190.104 498,-180.104 494.5,-190.104 501.5,-190.104"/>
</g>
<!-- Token -->
<g id="node7" class="node"><title>Token</title>
<polygon fill="none" stroke="black" points="262,-756 208,-756 208,-720 262,-720 262,-756"/>
<text text-anchor="middle" x="235" y="-734.3" font-family="Times New Roman,serif" font-size="14.00">Token</text>
</g>
<!-- Token&#45;&gt;Chemical_name_to_chemspider_IDWORKFLOWINTERNALSOURCE_Token -->
<g id="edge10" class="edge"><title>Token&#45;&gt;Chemical_name_to_chemspider_IDWORKFLOWINTERNALSOURCE_Token</title>
<path fill="none" stroke="black" d="M235,-719.697C235,-711.983 235,-702.712 235,-694.112"/>
<polygon fill="black" stroke="black" points="238.5,-694.104 235,-684.104 231.5,-694.104 238.5,-694.104"/>
</g>
<!-- Chemical_name_to_chemspider_IDWORKFLOWINTERNALSOURCE_ChemicalNameOrID&#45;&gt;Chemical_name_to_chemspider_IDSimpleSearch_input -->
<g id="edge11" class="edge"><title>Chemical_name_to_chemspider_IDWORKFLOWINTERNALSOURCE_ChemicalNameOrID&#45;&gt;Chemical_name_to_chemspider_IDSimpleSearch_input</title>
<path fill="none" stroke="black" d="M697.756,-647.966C659.907,-637.93 611.861,-625.19 572.375,-614.721"/>
<polygon fill="black" stroke="black" points="573.095,-611.291 562.532,-612.111 571.301,-618.057 573.095,-611.291"/>
</g>
<!-- Workflow40WORKFLOWINTERNALSOURCE_id_in&#45;&gt;Workflow40REST_Service -->
<g id="edge12" class="edge"><title>Workflow40WORKFLOWINTERNALSOURCE_id_in&#45;&gt;Workflow40REST_Service</title>
<path fill="none" stroke="black" d="M498,-287.697C498,-279.983 498,-270.712 498,-262.112"/>
<polygon fill="black" stroke="black" points="501.5,-262.104 498,-252.104 494.5,-262.104 501.5,-262.104"/>
</g>
<!-- Chemical_name_to_chemspider_IDSimpleSearch -->
<g id="node11" class="node"><title>Chemical_name_to_chemspider_IDSimpleSearch</title>
<polygon fill="none" stroke="black" points="645,-540 351,-540 351,-504 645,-504 645,-540"/>
<text text-anchor="middle" x="498" y="-518.3" font-family="Times New Roman,serif" font-size="14.00">Chemical_name_to_chemspider_IDSimpleSearch</text>
</g>
<!-- Chemical_name_to_chemspider_IDSimpleSearch_output -->
<g id="node13" class="node"><title>Chemical_name_to_chemspider_IDSimpleSearch_output</title>
<polygon fill="none" stroke="black" points="667,-468 329,-468 329,-432 667,-432 667,-468"/>
<text text-anchor="middle" x="498" y="-446.3" font-family="Times New Roman,serif" font-size="14.00">Chemical_name_to_chemspider_IDSimpleSearch_output</text>
</g>
<!-- Chemical_name_to_chemspider_IDSimpleSearch&#45;&gt;Chemical_name_to_chemspider_IDSimpleSearch_output -->
<g id="edge3" class="edge"><title>Chemical_name_to_chemspider_IDSimpleSearch&#45;&gt;Chemical_name_to_chemspider_IDSimpleSearch_output</title>
<path fill="none" stroke="black" d="M498,-503.697C498,-495.983 498,-486.712 498,-478.112"/>
<polygon fill="black" stroke="black" points="501.5,-478.104 498,-468.104 494.5,-478.104 501.5,-478.104"/>
</g>
<!-- Chemical_name_to_chemspider_IDSimpleSearch_input&#45;&gt;Chemical_name_to_chemspider_IDSimpleSearch -->
<g id="edge5" class="edge"><title>Chemical_name_to_chemspider_IDSimpleSearch_input&#45;&gt;Chemical_name_to_chemspider_IDSimpleSearch</title>
<path fill="none" stroke="black" d="M498,-575.697C498,-567.983 498,-558.712 498,-550.112"/>
<polygon fill="black" stroke="black" points="501.5,-550.104 498,-540.104 494.5,-550.104 501.5,-550.104"/>
</g>
<!-- Chemical_name_to_chemspider_IDSimpleSearch_output&#45;&gt;Chemical_name_to_chemspider_IDWORKFLOWINTERNALSINK_CSIDs -->
<g id="edge7" class="edge"><title>Chemical_name_to_chemspider_IDSimpleSearch_output&#45;&gt;Chemical_name_to_chemspider_IDWORKFLOWINTERNALSINK_CSIDs</title>
<path fill="none" stroke="black" d="M498,-431.697C498,-423.983 498,-414.712 498,-406.112"/>
<polygon fill="black" stroke="black" points="501.5,-406.104 498,-396.104 494.5,-406.104 501.5,-406.104"/>
</g>
</g>
</svg>
