<?xml version="1.0" encoding="UTF-8" standalone="no"?>
<!DOCTYPE svg PUBLIC "-//W3C//DTD SVG 1.1//EN"
 "http://www.w3.org/Graphics/SVG/1.1/DTD/svg11.dtd">
<!-- Generated by graphviz version 2.38.0 (20140413.2041)
 -->
<!-- Title: G Pages: 1 -->
<svg width="517pt" height="620pt"
 viewBox="0.00 0.00 517.00 620.00" xmlns="http://www.w3.org/2000/svg" xmlns:xlink="http://www.w3.org/1999/xlink">
<g id="graph0" class="graph" transform="scale(1 1) rotate(0) translate(4 616)">
<title>G</title>
<polygon fill="white" stroke="none" points="-4,4 -4,-616 513,-616 513,4 -4,4"/>
<!-- temp_filename -->
<g id="node1" class="node"><title>temp_filename</title>
<polygon fill="none" stroke="black" points="98,-252 0,-252 0,-216 98,-216 98,-252"/>
<text text-anchor="middle" x="49" y="-230.3" font-family="Times New Roman,serif" font-size="14.00">temp_filename</text>
</g>
<!-- Write_Text_File -->
<g id="node16" class="node"><title>Write_Text_File</title>
<polygon fill="none" stroke="black" points="189,-180 81,-180 81,-144 189,-144 189,-180"/>
<text text-anchor="middle" x="135" y="-158.3" font-family="Times New Roman,serif" font-size="14.00">Write_Text_File</text>
</g>
<!-- temp_filename&#45;&gt;Write_Text_File -->
<g id="edge1" class="edge"><title>temp_filename&#45;&gt;Write_Text_File</title>
<path fill="none" stroke="black" d="M70.2584,-215.697C81.0894,-206.881 94.4178,-196.032 106.16,-186.474"/>
<polygon fill="black" stroke="black" points="108.44,-189.132 113.986,-180.104 104.021,-183.703 108.44,-189.132"/>
</g>
<!-- PubMed_and_MEDLINE -->
<g id="node2" class="node"><title>PubMed_and_MEDLINE</title>
<polygon fill="none" stroke="black" points="162.5,-612 1.5,-612 1.5,-576 162.5,-576 162.5,-612"/>
<text text-anchor="middle" x="82" y="-590.3" font-family="Times New Roman,serif" font-size="14.00">PubMed_and_MEDLINE</text>
</g>
<!-- getReferences_input -->
<g id="node4" class="node"><title>getReferences_input</title>
<polygon fill="none" stroke="black" points="213.5,-540 82.5,-540 82.5,-504 213.5,-504 213.5,-540"/>
<text text-anchor="middle" x="148" y="-518.3" font-family="Times New Roman,serif" font-size="14.00">getReferences_input</text>
</g>
<!-- PubMed_and_MEDLINE&#45;&gt;getReferences_input -->
<g id="edge3" class="edge"><title>PubMed_and_MEDLINE&#45;&gt;getReferences_input</title>
<path fill="none" stroke="black" d="M98.3146,-575.697C106.307,-567.22 116.072,-556.864 124.822,-547.583"/>
<polygon fill="black" stroke="black" points="127.559,-549.781 131.873,-540.104 122.466,-544.979 127.559,-549.781"/>
</g>
<!-- getCitations_input -->
<g id="node10" class="node"><title>getCitations_input</title>
<polygon fill="none" stroke="black" points="354,-540 236,-540 236,-504 354,-504 354,-540"/>
<text text-anchor="middle" x="295" y="-518.3" font-family="Times New Roman,serif" font-size="14.00">getCitations_input</text>
</g>
<!-- PubMed_and_MEDLINE&#45;&gt;getCitations_input -->
<g id="edge2" class="edge"><title>PubMed_and_MEDLINE&#45;&gt;getCitations_input</title>
<path fill="none" stroke="black" d="M133.833,-575.966C163.853,-566.1 201.823,-553.622 233.367,-543.255"/>
<polygon fill="black" stroke="black" points="234.527,-546.558 242.934,-540.111 232.341,-539.908 234.527,-546.558"/>
</g>
<!-- pageSize -->
<g id="node3" class="node"><title>pageSize</title>
<polygon fill="none" stroke="black" points="247,-612 181,-612 181,-576 247,-576 247,-612"/>
<text text-anchor="middle" x="214" y="-590.3" font-family="Times New Roman,serif" font-size="14.00">pageSize</text>
</g>
<!-- pageSize&#45;&gt;getReferences_input -->
<g id="edge5" class="edge"><title>pageSize&#45;&gt;getReferences_input</title>
<path fill="none" stroke="black" d="M197.685,-575.697C189.693,-567.22 179.928,-556.864 171.178,-547.583"/>
<polygon fill="black" stroke="black" points="173.534,-544.979 164.127,-540.104 168.441,-549.781 173.534,-544.979"/>
</g>
<!-- pageSize&#45;&gt;getCitations_input -->
<g id="edge4" class="edge"><title>pageSize&#45;&gt;getCitations_input</title>
<path fill="none" stroke="black" d="M234.022,-575.697C244.126,-566.965 256.536,-556.24 267.518,-546.75"/>
<polygon fill="black" stroke="black" points="269.93,-549.291 275.208,-540.104 265.353,-543.995 269.93,-549.291"/>
</g>
<!-- getReferences -->
<g id="node9" class="node"><title>getReferences</title>
<polygon fill="none" stroke="black" points="193.5,-468 98.5,-468 98.5,-432 193.5,-432 193.5,-468"/>
<text text-anchor="middle" x="146" y="-446.3" font-family="Times New Roman,serif" font-size="14.00">getReferences</text>
</g>
<!-- getReferences_input&#45;&gt;getReferences -->
<g id="edge6" class="edge"><title>getReferences_input&#45;&gt;getReferences</title>
<path fill="none" stroke="black" d="M147.506,-503.697C147.285,-495.983 147.02,-486.712 146.775,-478.112"/>
<polygon fill="black" stroke="black" points="150.273,-478 146.489,-468.104 143.276,-478.2 150.273,-478"/>
</g>
<!-- extract_reference_id -->
<g id="node5" class="node"><title>extract_reference_id</title>
<polygon fill="none" stroke="black" points="214.5,-324 83.5,-324 83.5,-288 214.5,-288 214.5,-324"/>
<text text-anchor="middle" x="149" y="-302.3" font-family="Times New Roman,serif" font-size="14.00">extract_reference_id</text>
</g>
<!-- combine_citations_and_references -->
<g id="node12" class="node"><title>combine_citations_and_references</title>
<polygon fill="none" stroke="black" points="327.5,-252 116.5,-252 116.5,-216 327.5,-216 327.5,-252"/>
<text text-anchor="middle" x="222" y="-230.3" font-family="Times New Roman,serif" font-size="14.00">combine_citations_and_references</text>
</g>
<!-- extract_reference_id&#45;&gt;combine_citations_and_references -->
<g id="edge7" class="edge"><title>extract_reference_id&#45;&gt;combine_citations_and_references</title>
<path fill="none" stroke="black" d="M167.045,-287.697C176.062,-279.05 187.118,-268.449 196.943,-259.027"/>
<polygon fill="black" stroke="black" points="199.367,-261.552 204.163,-252.104 194.522,-256.499 199.367,-261.552"/>
</g>
<!-- draw_graph -->
<g id="node6" class="node"><title>draw_graph</title>
<polygon fill="none" stroke="black" points="176.5,-108 93.5,-108 93.5,-72 176.5,-72 176.5,-108"/>
<text text-anchor="middle" x="135" y="-86.3" font-family="Times New Roman,serif" font-size="14.00">draw_graph</text>
</g>
<!-- WORKFLOWINTERNALSINK_graph -->
<g id="node7" class="node"><title>WORKFLOWINTERNALSINK_graph</title>
<polygon fill="none" stroke="black" points="255.5,-36 14.5,-36 14.5,-0 255.5,-0 255.5,-36"/>
<text text-anchor="middle" x="135" y="-14.3" font-family="Times New Roman,serif" font-size="14.00">WORKFLOWINTERNALSINK_graph</text>
</g>
<!-- draw_graph&#45;&gt;WORKFLOWINTERNALSINK_graph -->
<g id="edge8" class="edge"><title>draw_graph&#45;&gt;WORKFLOWINTERNALSINK_graph</title>
<path fill="none" stroke="black" d="M135,-71.6966C135,-63.9827 135,-54.7125 135,-46.1124"/>
<polygon fill="black" stroke="black" points="138.5,-46.1043 135,-36.1043 131.5,-46.1044 138.5,-46.1043"/>
</g>
<!-- getCitations_output -->
<g id="node8" class="node"><title>getCitations_output</title>
<polygon fill="none" stroke="black" points="360,-396 234,-396 234,-360 360,-360 360,-396"/>
<text text-anchor="middle" x="297" y="-374.3" font-family="Times New Roman,serif" font-size="14.00">getCitations_output</text>
</g>
<!-- extract_citation_id -->
<g id="node15" class="node"><title>extract_citation_id</title>
<polygon fill="none" stroke="black" points="355,-324 235,-324 235,-288 355,-288 355,-324"/>
<text text-anchor="middle" x="295" y="-302.3" font-family="Times New Roman,serif" font-size="14.00">extract_citation_id</text>
</g>
<!-- getCitations_output&#45;&gt;extract_citation_id -->
<g id="edge9" class="edge"><title>getCitations_output&#45;&gt;extract_citation_id</title>
<path fill="none" stroke="black" d="M296.506,-359.697C296.285,-351.983 296.02,-342.712 295.775,-334.112"/>
<polygon fill="black" stroke="black" points="299.273,-334 295.489,-324.104 292.276,-334.2 299.273,-334"/>
</g>
<!-- getReferences_output -->
<g id="node11" class="node"><title>getReferences_output</title>
<polygon fill="none" stroke="black" points="215.5,-396 76.5,-396 76.5,-360 215.5,-360 215.5,-396"/>
<text text-anchor="middle" x="146" y="-374.3" font-family="Times New Roman,serif" font-size="14.00">getReferences_output</text>
</g>
<!-- getReferences&#45;&gt;getReferences_output -->
<g id="edge10" class="edge"><title>getReferences&#45;&gt;getReferences_output</title>
<path fill="none" stroke="black" d="M146,-431.697C146,-423.983 146,-414.712 146,-406.112"/>
<polygon fill="black" stroke="black" points="149.5,-406.104 146,-396.104 142.5,-406.104 149.5,-406.104"/>
</g>
<!-- getCitations -->
<g id="node14" class="node"><title>getCitations</title>
<polygon fill="none" stroke="black" points="337.5,-468 254.5,-468 254.5,-432 337.5,-432 337.5,-468"/>
<text text-anchor="middle" x="296" y="-446.3" font-family="Times New Roman,serif" font-size="14.00">getCitations</text>
</g>
<!-- getCitations_input&#45;&gt;getCitations -->
<g id="edge11" class="edge"><title>getCitations_input&#45;&gt;getCitations</title>
<path fill="none" stroke="black" d="M295.247,-503.697C295.357,-495.983 295.49,-486.712 295.613,-478.112"/>
<polygon fill="black" stroke="black" points="299.112,-478.153 295.756,-468.104 292.113,-478.053 299.112,-478.153"/>
</g>
<!-- getReferences_output&#45;&gt;extract_reference_id -->
<g id="edge12" class="edge"><title>getReferences_output&#45;&gt;extract_reference_id</title>
<path fill="none" stroke="black" d="M146.742,-359.697C147.072,-351.983 147.469,-342.712 147.838,-334.112"/>
<polygon fill="black" stroke="black" points="151.335,-334.245 148.267,-324.104 144.342,-333.945 151.335,-334.245"/>
</g>
<!-- combine_citations_and_references&#45;&gt;Write_Text_File -->
<g id="edge13" class="edge"><title>combine_citations_and_references&#45;&gt;Write_Text_File</title>
<path fill="none" stroke="black" d="M200.494,-215.697C189.537,-206.881 176.054,-196.032 164.175,-186.474"/>
<polygon fill="black" stroke="black" points="166.244,-183.646 156.258,-180.104 161.855,-189.1 166.244,-183.646"/>
</g>
<!-- WORKFLOWINTERNALSOURCE_id -->
<g id="node13" class="node"><title>WORKFLOWINTERNALSOURCE_id</title>
<polygon fill="none" stroke="black" points="509,-612 265,-612 265,-576 509,-576 509,-612"/>
<text text-anchor="middle" x="387" y="-590.3" font-family="Times New Roman,serif" font-size="14.00">WORKFLOWINTERNALSOURCE_id</text>
</g>
<!-- WORKFLOWINTERNALSOURCE_id&#45;&gt;getReferences_input -->
<g id="edge15" class="edge"><title>WORKFLOWINTERNALSOURCE_id&#45;&gt;getReferences_input</title>
<path fill="none" stroke="black" d="M328.84,-575.966C294.865,-566.015 251.815,-553.406 216.243,-542.987"/>
<polygon fill="black" stroke="black" points="217.002,-539.563 206.421,-540.111 215.034,-546.281 217.002,-539.563"/>
</g>
<!-- WORKFLOWINTERNALSOURCE_id&#45;&gt;getCitations_input -->
<g id="edge14" class="edge"><title>WORKFLOWINTERNALSOURCE_id&#45;&gt;getCitations_input</title>
<path fill="none" stroke="black" d="M364.258,-575.697C352.56,-566.796 338.139,-555.823 325.49,-546.199"/>
<polygon fill="black" stroke="black" points="327.558,-543.374 317.48,-540.104 323.319,-548.945 327.558,-543.374"/>
</g>
<!-- getCitations&#45;&gt;getCitations_output -->
<g id="edge16" class="edge"><title>getCitations&#45;&gt;getCitations_output</title>
<path fill="none" stroke="black" d="M296.247,-431.697C296.357,-423.983 296.49,-414.712 296.613,-406.112"/>
<polygon fill="black" stroke="black" points="300.112,-406.153 296.756,-396.104 293.113,-406.053 300.112,-406.153"/>
</g>
<!-- extract_citation_id&#45;&gt;combine_citations_and_references -->
<g id="edge17" class="edge"><title>extract_citation_id&#45;&gt;combine_citations_and_references</title>
<path fill="none" stroke="black" d="M276.955,-287.697C267.938,-279.05 256.882,-268.449 247.057,-259.027"/>
<polygon fill="black" stroke="black" points="249.478,-256.499 239.837,-252.104 244.633,-261.552 249.478,-256.499"/>
</g>
<!-- Write_Text_File&#45;&gt;draw_graph -->
<g id="edge18" class="edge"><title>Write_Text_File&#45;&gt;draw_graph</title>
<path fill="none" stroke="black" d="M135,-143.697C135,-135.983 135,-126.712 135,-118.112"/>
<polygon fill="black" stroke="black" points="138.5,-118.104 135,-108.104 131.5,-118.104 138.5,-118.104"/>
</g>
</g>
</svg>
